<?xml version="1.0" standalone="no"?>
<!DOCTYPE svg PUBLIC "-//W3C//DTD SVG 20010904//EN"
 "http://www.w3.org/TR/2001/REC-SVG-20010904/DTD/svg10.dtd">
<svg version="1.0" xmlns="http://www.w3.org/2000/svg"
 width="256.000000pt" height="256.000000pt" viewBox="0 0 256.000000 256.000000"
 preserveAspectRatio="xMidYMid meet">
<metadata>
Created by potrace 1.14, written by Peter Selinger 2001-2017
</metadata>
<g transform="translate(0.000000,256.000000) scale(0.100000,-0.100000)"
fill="#000000" stroke="none">
<path d="M1109 2549 c-542 -79 -967 -476 -1084 -1014 -23 -104 -28 -333 -10
-440 18 -111 22 -126 35 -160 6 -16 11 -32 11 -35 -3 -57 143 -332 228 -430
12 -14 34 -39 49 -56 82 -92 240 -212 362 -274 92 -47 234 -96 331 -115 94
-19 340 -28 409 -15 25 5 65 11 90 15 65 9 237 68 319 110 355 178 599 495
683 885 26 121 32 350 12 465 -71 403 -320 747 -674 929 -70 36 -288 121 -298
116 -3 -2 -77 10 -107 17 -38 9 -300 10 -356 2z"/>
</g>
</svg>
